P3
# CREATOR: GIMP PNM Filter Version 1.1
60 60
255
255
255
255
255
255
255
255
255
255
255
255
255
255
255
255
255
255
255
255
255
255
255
255
255
255
255
255
255
255
255
255
255
255
255
255
255
255
255
255
255
255
255
255
255
255
255
255
255
255
255
255
255
255
255
255
255
255
255
255
255
255
255
255
255
255
255
255
255
255
255
255
255
255
255
255
255
255
255
255
255
255
255
255
255
255
255
255
255
255
255
255
255
255
255
255
255
255
255
255
255
255
255
255
255
255
255
255
255
255
255
255
255
255
255
255
255
255
255
255
255
255
255
255
255
255
255
255
255
255
255
255
255
255
255
255
255
255
255
255
255
255
255
255
255
255
255
255
255
255
255
255
255
255
255
255
255
255
255
255
255
255
255
255
255
255
255
255
255
255
255
255
255
255
255
255
255
255
255
255
255
255
255
255
255
255
255
255
255
255
255
255
255
255
255
255
255
255
255
255
255
255
255
255
255
255
255
255
255
255
255
255
255
255
255
255
255
255
255
255
255
255
255
255
255
255
255
255
255
255
255
255
255
255
255
255
255
255
255
255
255
255
255
255
255
255
255
255
255
255
255
255
255
255
255
255
255
255
255
255
255
255
255
255
255
255
255
255
255
255
255
255
255
255
255
255
255
255
255
255
255
255
255
255
255
255
255
255
255
255
255
255
255
255
255
255
255
255
255
255
255
255
255
255
255
255
255
255
255
255
255
255
255
255
255
255
255
255
255
255
255
255
255
255
255
255
255
255
255
255
255
255
255
255
255
255
255
255
255
255
255
255
255
255
255
255
255
255
255
255
255
255
255
255
255
255
255
255
255
255
255
255
255
255
255
255
255
255
255
255
255
255
255
255
255
255
255
255
255
255
255
255
255
255
255
255
255
255
255
255
255
255
255
255
255
255
255
255
255
255
255
255
255
255
255
255
255
255
255
255
255
255
255
255
255
255
255
255
255
255
255
255
255
255
255
255
255
255
255
255
255
255
255
255
255
255
255
255
255
255
255
255
255
255
255
255
255
255
255
255
255
255
255
255
255
255
255
255
255
255
255
255
255
255
255
255
255
255
255
255
255
255
255
255
255
255
255
255
255
255
255
255
255
255
255
255
255
255
255
255
255
255
255
255
255
255
255
255
255
255
255
255
255
255
255
255
255
255
255
255
255
255
255
255
255
255
255
255
255
255
255
255
255
255
255
255
255
255
255
255
255
255
255
255
255
255
255
255
255
255
255
255
255
255
255
255
255
255
255
255
255
255
255
255
255
255
255
255
255
255
255
255
255
255
255
255
255
255
255
255
255
255
255
255
255
255
255
255
255
255
255
255
255
255
255
255
255
255
255
255
255
255
255
255
255
255
255
255
255
255
255
255
255
255
255
255
255
255
255
255
255
255
255
255
255
255
255
255
255
255
255
255
255
255
255
255
255
255
255
255
255
255
255
255
255
255
255
255
255
255
255
255
255
255
255
255
255
255
255
255
255
255
255
255
255
255
255
255
255
255
255
255
255
255
255
255
255
255
255
255
255
255
255
255
255
255
255
255
255
255
255
255
255
255
255
255
255
255
255
255
255
255
255
255
255
255
255
255
255
255
255
255
255
255
255
255
255
255
255
255
255
255
255
255
255
255
255
255
255
255
255
255
255
255
255
255
255
255
255
255
255
255
255
255
255
255
255
255
255
255
255
255
255
255
255
255
255
255
255
255
255
255
255
255
255
255
255
255
255
255
255
255
255
255
255
255
255
255
255
255
255
255
255
255
255
255
255
255
255
255
255
255
255
255
255
255
255
255
255
255
255
255
255
255
255
255
255
255
255
255
255
255
255
255
255
255
255
255
255
255
255
255
255
255
255
255
255
255
255
255
255
255
255
255
255
255
255
255
255
255
255
255
255
255
255
255
255
255
255
255
255
255
255
255
255
255
255
255
255
255
255
255
255
255
255
255
255
255
255
255
255
255
255
255
255
255
255
255
255
255
255
255
255
255
255
255
255
255
255
255
255
255
255
255
255
255
255
255
255
255
255
255
255
255
255
255
255
255
255
255
255
255
255
255
255
255
255
255
255
255
255
255
255
255
255
255
255
255
255
255
255
255
255
255
255
255
255
255
255
255
255
255
255
255
255
255
255
255
255
255
255
255
255
255
255
255
255
255
255
255
255
255
255
255
255
255
255
255
255
255
255
255
255
255
255
255
255
255
255
255
255
255
255
255
255
255
255
255
255
254
254
254
254
254
254
254
254
254
254
254
254
254
254
254
254
254
254
254
254
254
254
254
254
254
254
254
255
255
255
255
255
255
255
255
255
255
255
255
255
255
255
255
255
255
255
255
255
255
255
255
255
255
255
255
255
255
255
255
255
255
255
255
255
255
255
255
255
255
255
255
255
255
255
255
255
255
255
255
255
255
255
255
255
255
255
255
255
255
255
255
255
255
255
255
255
255
255
255
255
255
255
255
255
255
255
255
255
255
255
255
255
255
255
255
255
255
255
255
255
255
255
255
255
255
255
255
255
255
255
255
255
255
255
255
255
255
255
255
255
255
255
255
255
255
255
255
255
255
255
255
255
255
255
255
255
255
255
255
255
255
255
255
255
255
255
255
255
254
254
254
254
254
254
253
253
253
253
253
253
252
252
252
252
252
252
252
252
252
251
251
251
251
251
251
251
251
251
252
252
252
252
252
252
252
252
252
253
253
253
253
253
253
254
254
254
254
254
254
255
255
255
255
255
255
255
255
255
255
255
255
255
255
255
255
255
255
255
255
255
255
255
255
255
255
255
255
255
255
255
255
255
255
255
255
255
255
255
255
255
255
255
255
255
255
255
255
255
255
255
255
255
255
255
255
255
255
255
255
255
255
255
255
255
255
255
255
255
255
255
255
255
255
255
255
255
255
255
255
255
255
255
255
255
255
255
255
255
255
255
255
255
255
255
255
255
255
255
255
255
255
255
255
255
255
255
255
255
255
255
255
255
255
255
255
255
255
255
255
254
254
254
254
254
254
253
253
253
252
252
252
251
251
251
250
250
250
248
248
248
247
247
247
246
246
246
245
245
245
244
244
244
244
244
244
244
244
244
245
245
245
246
246
246
247
247
247
248
248
248
250
250
250
251
251
251
252
252
252
253
253
253
254
254
254
254
254
254
255
255
255
255
255
255
255
255
255
255
255
255
255
255
255
255
255
255
255
255
255
255
255
255
255
255
255
255
255
255
255
255
255
255
255
255
255
255
255
255
255
255
255
255
255
255
255
255
255
255
255
255
255
255
255
255
255
255
255
255
255
255
255
255
255
255
255
255
255
255
255
255
255
255
255
255
255
255
255
255
255
255
255
255
255
255
255
255
255
255
255
255
255
255
255
255
255
255
255
255
255
255
255
255
255
255
255
255
254
254
254
253
253
253
252
252
252
249
249
249
247
247
247
244
244
244
241
241
241
237
237
237
234
234
234
231
231
231
229
229
229
228
228
228
228
228
228
228
228
228
229
229
229
231
231
231
234
234
234
237
237
237
241
241
241
244
244
244
247
247
247
249
249
249
252
252
252
253
253
253
254
254
254
255
255
255
255
255
255
255
255
255
255
255
255
255
255
255
255
255
255
255
255
255
255
255
255
255
255
255
255
255
255
255
255
255
255
255
255
255
255
255
255
255
255
255
255
255
255
255
255
255
255
255
255
255
255
255
255
255
255
255
255
255
255
255
255
255
255
255
255
255
255
255
255
255
255
255
255
255
255
255
255
255
255
255
255
255
255
255
255
255
255
255
255
255
255
255
255
255
255
255
254
254
254
253
253
253
251
251
251
249
249
249
245
245
245
241
241
241
235
235
235
229
229
229
222
222
222
216
216
216
210
210
210
205
205
205
201
201
201
199
199
199
198
198
198
199
199
199
201
201
201
205
205
205
210
210
210
216
216
216
222
222
222
229
229
229
235
235
235
241
241
241
245
245
245
249
249
249
251
251
251
253
253
253
254
254
254
255
255
255
255
255
255
255
255
255
255
255
255
255
255
255
255
255
255
255
255
255
255
255
255
255
255
255
255
255
255
255
255
255
255
255
255
255
255
255
255
255
255
255
255
255
255
255
255
255
255
255
255
255
255
255
255
255
255
255
255
255
255
255
255
255
255
255
255
255
255
255
255
255
255
255
255
255
255
255
255
255
255
255
255
255
255
255
254
254
254
254
254
254
252
252
252
249
249
249
245
245
245
239
239
239
232
232
232
223
223
223
213
213
213
202
202
202
191
191
191
181
181
181
173
173
173
166
166
166
161
161
161
157
157
157
156
156
156
157
157
157
161
161
161
166
166
166
173
173
173
181
181
181
191
191
191
202
202
202
213
213
213
223
223
223
232
232
232
239
239
239
245
245
245
249
249
249
252
252
252
254
254
254
254
254
254
255
255
255
255
255
255
255
255
255
255
255
255
255
255
255
255
255
255
255
255
255
255
255
255
255
255
255
255
255
255
255
255
255
255
255
255
255
255
255
255
255
255
255
255
255
255
255
255
255
255
255
255
255
255
255
255
255
255
255
255
255
255
255
255
255
255
255
255
255
255
255
255
255
255
255
255
255
255
254
254
254
253
253
253
251
251
251
247
247
247
241
241
241
232
232
232
221
221
221
208
208
208
194
194
194
179
179
179
164
164
164
150
150
150
137
137
137
127
127
127
119
119
119
113
113
113
110
110
110
109
109
109
110
110
110
113
113
113
119
119
119
127
127
127
137
137
137
150
150
150
164
164
164
179
179
179
194
194
194
208
208
208
221
221
221
232
232
232
241
241
241
247
247
247
251
251
251
253
253
253
254
254
254
255
255
255
255
255
255
255
255
255
255
255
255
255
255
255
255
255
255
255
255
255
255
255
255
255
255
255
255
255
255
255
255
255
255
255
255
255
255
255
255
255
255
255
255
255
255
255
255
255
255
255
255
255
255
255
255
255
255
255
255
255
255
255
255
255
255
255
255
255
255
255
255
254
254
254
253
253
253
250
250
250
245
245
245
237
237
237
225
225
225
211
211
211
194
194
194
175
175
175
155
155
155
136
136
136
119
119
119
104
104
104
92
92
92
82
82
82
74
74
74
69
69
69
66
66
66
65
65
65
66
66
66
69
69
69
74
74
74
82
82
82
92
92
92
104
104
104
119
119
119
136
136
136
155
155
155
175
175
175
194
194
194
211
211
211
225
225
225
237
237
237
245
245
245
250
250
250
253
253
253
254
254
254
255
255
255
255
255
255
255
255
255
255
255
255
255
255
255
255
255
255
255
255
255
255
255
255
255
255
255
255
255
255
255
255
255
255
255
255
255
255
255
255
255
255
255
255
255
255
255
255
255
255
255
255
255
255
255
255
255
255
255
255
255
255
255
255
255
255
254
254
254
252
252
252
249
249
249
243
243
243
233
233
233
219
219
219
201
201
201
180
180
180
157
157
157
134
134
134
112
112
112
93
93
93
77
77
77
63
63
63
53
53
53
45
45
45
39
39
39
35
35
35
33
33
33
32
32
32
33
33
33
35
35
35
39
39
39
45
45
45
53
53
53
63
63
63
77
77
77
93
93
93
112
112
112
134
134
134
157
157
157
180
180
180
201
201
201
219
219
219
233
233
233
243
243
243
249
249
249
252
252
252
254
254
254
255
255
255
255
255
255
255
255
255
255
255
255
255
255
255
255
255
255
255
255
255
255
255
255
255
255
255
255
255
255
255
255
255
255
255
255
255
255
255
255
255
255
255
255
255
255
255
255
255
255
255
255
255
255
255
255
255
255
255
255
254
254
254
253
253
253
249
249
249
242
242
242
231
231
231
215
215
215
194
194
194
169
169
169
143
143
143
117
117
117
93
93
93
73
73
73
56
56
56
43
43
43
33
33
33
26
26
26
21
21
21
18
18
18
15
15
15
14
14
14
14
14
14
14
14
14
15
15
15
18
18
18
21
21
21
26
26
26
33
33
33
43
43
43
56
56
56
73
73
73
93
93
93
117
117
117
143
143
143
169
169
169
194
194
194
215
215
215
231
231
231
242
242
242
249
249
249
253
253
253
254
254
254
255
255
255
255
255
255
255
255
255
255
255
255
255
255
255
255
255
255
255
255
255
255
255
255
255
255
255
255
255
255
255
255
255
255
255
255
255
255
255
255
255
255
255
255
255
255
255
255
255
255
255
255
255
255
254
254
254
253
253
253
249
249
249
242
242
242
231
231
231
213
213
213
190
190
190
162
162
162
132
132
132
104
104
104
78
78
78
57
57
57
41
41
41
29
29
29
21
21
21
15
15
15
11
11
11
9
9
9
7
7
7
6
6
6
5
5
5
5
5
5
5
5
5
6
6
6
7
7
7
9
9
9
11
11
11
15
15
15
21
21
21
29
29
29
41
41
41
57
57
57
78
78
78
104
104
104
132
132
132
162
162
162
190
190
190
213
213
213
231
231
231
242
242
242
249
249
249
253
253
253
254
254
254
255
255
255
255
255
255
255
255
255
255
255
255
255
255
255
255
255
255
255
255
255
255
255
255
255
255
255
255
255
255
255
255
255
255
255
255
255
255
255
255
255
255
255
255
255
255
255
255
254
254
254
253
253
253
250
250
250
244
244
244
232
232
232
214
214
214
189
189
189
159
159
159
127
127
127
96
96
96
69
69
69
47
47
47
32
32
32
21
21
21
13
13
13
9
9
9
6
6
6
4
4
4
3
3
3
2
2
2
2
2
2
1
1
1
1
1
1
1
1
1
2
2
2
2
2
2
3
3
3
4
4
4
6
6
6
9
9
9
13
13
13
21
21
21
32
32
32
47
47
47
69
69
69
96
96
96
127
127
127
159
159
159
189
189
189
214
214
214
232
232
232
244
244
244
250
250
250
253
253
253
254
254
254
255
255
255
255
255
255
255
255
255
255
255
255
255
255
255
255
255
255
255
255
255
255
255
255
255
255
255
255
255
255
255
255
255
255
255
255
255
255
255
255
255
255
255
255
255
254
254
254
251
251
251
245
245
245
234
234
234
216
216
216
190
190
190
159
159
159
125
125
125
92
92
92
64
64
64
41
41
41
26
26
26
15
15
15
9
9
9
5
5
5
3
3
3
2
2
2
1
1
1
1
1
1
0
0
0
0
0
0
0
0
0
0
0
0
0
0
0
0
0
0
0
0
0
1
1
1
1
1
1
2
2
2
3
3
3
5
5
5
9
9
9
15
15
15
26
26
26
41
41
41
64
64
64
92
92
92
125
125
125
159
159
159
190
190
190
216
216
216
234
234
234
245
245
245
251
251
251
254
254
254
255
255
255
255
255
255
255
255
255
255
255
255
255
255
255
255
255
255
255
255
255
255
255
255
255
255
255
255
255
255
255
255
255
255
255
255
255
255
255
255
255
255
254
254
254
252
252
252
247
247
247
237
237
237
220
220
220
195
195
195
163
163
163
127
127
127
92
92
92
62
62
62
39
39
39
23
23
23
12
12
12
7
7
7
3
3
3
2
2
2
1
1
1
0
0
0
0
0
0
0
0
0
0
0
0
0
0
0
0
0
0
0
0
0
0
0
0
0
0
0
0
0
0
0
0
0
0
0
0
0
0
0
1
1
1
2
2
2
3
3
3
7
7
7
12
12
12
23
23
23
39
39
39
62
62
62
92
92
92
127
127
127
163
163
163
195
195
195
220
220
220
237
237
237
247
247
247
252
252
252
254
254
254
255
255
255
255
255
255
255
255
255
255
255
255
255
255
255
255
255
255
255
255
255
255
255
255
255
255
255
255
255
255
255
255
255
255
255
255
254
254
254
253
253
253
249
249
249
241
241
241
226
226
226
203
203
203
171
171
171
134
134
134
97
97
97
64
64
64
39
39
39
22
22
22
12
12
12
6
6
6
3
3
3
1
1
1
0
0
0
0
0
0
0
0
0
0
0
0
0
0
0
0
0
0
0
0
0
0
0
0
0
0
0
0
0
0
0
0
0
0
0
0
0
0
0
0
0
0
0
0
0
0
0
0
0
0
0
1
1
1
3
3
3
6
6
6
12
12
12
22
22
22
39
39
39
64
64
64
97
97
97
134
134
134
171
171
171
203
203
203
226
226
226
241
241
241
249
249
249
253
253
253
254
254
254
255
255
255
255
255
255
255
255
255
255
255
255
255
255
255
255
255
255
255
255
255
255
255
255
255
255
255
255
255
255
255
255
255
254
254
254
252
252
252
246
246
246
233
233
233
213
213
213
182
182
182
145
145
145
106
106
106
70
70
70
42
42
42
23
23
23
12
12
12
5
5
5
2
2
2
1
1
1
0
0
0
0
0
0
0
0
0
0
0
0
0
0
0
0
0
0
0
0
0
0
0
0
0
0
0
0
0
0
0
0
0
0
0
0
0
0
0
0
0
0
0
0
0
0
0
0
0
0
0
0
0
0
0
0
0
1
1
1
2
2
2
5
5
5
12
12
12
23
23
23
42
42
42
70
70
70
106
106
106
145
145
145
182
182
182
213
213
213
233
233
233
246
246
246
252
252
252
254
254
254
255
255
255
255
255
255
255
255
255
255
255
255
255
255
255
255
255
255
255
255
255
255
255
255
255
255
255
255
255
255
255
255
255
253
253
253
249
249
249
240
240
240
223
223
223
196
196
196
160
160
160
119
119
119
80
80
80
49
49
49
26
26
26
13
13
13
6
6
6
2
2
2
1
1
1
0
0
0
0
0
0
0
0
0
0
0
0
0
0
0
0
0
0
0
0
0
0
0
0
0
0
0
0
0
0
0
0
0
0
0
0
0
0
0
0
0
0
0
0
0
0
0
0
0
0
0
0
0
0
0
0
0
0
0
0
0
0
0
1
1
1
2
2
2
6
6
6
13
13
13
26
26
26
49
49
49
80
80
80
119
119
119
160
160
160
196
196
196
223
223
223
240
240
240
249
249
249
253
253
253
255
255
255
255
255
255
255
255
255
255
255
255
255
255
255
255
255
255
255
255
255
255
255
255
255
255
255
255
255
255
254
254
254
252
252
252
246
246
246
233
233
233
211
211
211
178
178
178
137
137
137
96
96
96
59
59
59
33
33
33
16
16
16
7
7
7
3
3
3
1
1
1
0
0
0
0
0
0
0
0
0
0
0
0
0
0
0
0
0
0
0
0
0
0
0
0
0
0
0
0
0
0
0
0
0
0
0
0
0
0
0
0
0
0
0
0
0
0
0
0
0
0
0
0
0
0
0
0
0
0
0
0
0
0
0
0
0
0
0
0
0
1
1
1
3
3
3
7
7
7
16
16
16
33
33
33
59
59
59
96
96
96
137
137
137
178
178
178
211
211
211
233
233
233
246
246
246
252
252
252
254
254
254
255
255
255
255
255
255
255
255
255
255
255
255
255
255
255
255
255
255
255
255
255
255
255
255
255
255
255
253
253
253
250
250
250
241
241
241
224
224
224
197
197
197
159
159
159
116
116
116
75
75
75
43
43
43
22
22
22
9
9
9
4
4
4
1
1
1
0
0
0
0
0
0
0
0
0
0
0
0
0
0
0
0
0
0
0
0
0
0
0
0
0
0
0
0
0
0
0
0
0
0
0
0
0
0
0
0
0
0
0
0
0
0
0
0
0
0
0
0
0
0
0
0
0
0
0
0
0
0
0
0
0
0
0
0
0
0
0
0
0
0
0
1
1
1
4
4
4
9
9
9
22
22
22
43
43
43
75
75
75
116
116
116
159
159
159
197
197
197
224
224
224
241
241
241
250
250
250
253
253
253
255
255
255
255
255
255
255
255
255
255
255
255
255
255
255
255
255
255
255
255
255
255
255
255
254
254
254
253
253
253
248
248
248
236
236
236
215
215
215
182
182
182
140
140
140
96
96
96
58
58
58
31
31
31
14
14
14
5
5
5
2
2
2
0
0
0
0
0
0
0
0
0
0
0
0
0
0
0
0
0
0
0
0
0
0
0
0
0
0
0
0
0
0
0
0
0
0
0
0
0
0
0
0
0
0
0
0
0
0
0
0
0
0
0
0
0
0
0
0
0
0
0
0
0
0
0
0
0
0
0
0
0
0
0
0
0
0
0
0
0
0
0
0
0
2
2
2
5
5
5
14
14
14
31
31
31
58
58
58
96
96
96
140
140
140
182
182
182
215
215
215
236
236
236
248
248
248
253
253
253
254
254
254
255
255
255
255
255
255
255
255
255
255
255
255
255
255
255
255
255
255
255
255
255
254
254
254
251
251
251
245
245
245
230
230
230
204
204
204
167
167
167
123
123
123
80
80
80
45
45
45
22
22
22
9
9
9
3
3
3
1
1
1
0
0
0
0
0
0
0
0
0
0
0
0
0
0
0
0
0
0
0
0
0
0
0
0
0
0
0
0
0
0
0
0
0
0
0
0
0
0
0
0
0
0
0
0
0
0
0
0
0
0
0
0
0
0
0
0
0
0
0
0
0
0
0
0
0
0
0
0
0
0
0
0
0
0
0
0
0
0
0
0
0
1
1
1
3
3
3
9
9
9
22
22
22
45
45
45
80
80
80
123
123
123
167
167
167
204
204
204
230
230
230
245
245
245
251
251
251
254
254
254
255
255
255
255
255
255
255
255
255
255
255
255
255
255
255
255
255
255
255
255
255
254
254
254
250
250
250
242
242
242
224
224
224
194
194
194
153
153
153
108
108
108
66
66
66
35
35
35
16
16
16
6
6
6
2
2
2
0
0
0
0
0
0
0
0
0
0
0
0
0
0
0
0
0
0
0
0
0
0
0
0
0
0
0
0
0
0
0
0
0
0
0
0
0
0
0
0
0
0
0
0
0
0
0
0
0
0
0
0
0
0
0
0
0
0
0
0
0
0
0
0
0
0
0
0
0
0
0
0
0
0
0
0
0
0
0
0
0
0
0
0
0
0
0
2
2
2
6
6
6
16
16
16
35
35
35
66
66
66
108
108
108
153
153
153
194
194
194
224
224
224
242
242
242
250
250
250
254
254
254
255
255
255
255
255
255
255
255
255
255
255
255
255
255
255
255
255
255
255
255
255
253
253
253
249
249
249
238
238
238
217
217
217
184
184
184
141
141
141
95
95
95
55
55
55
28
28
28
12
12
12
4
4
4
1
1
1
0
0
0
0
0
0
0
0
0
0
0
0
0
0
0
0
0
0
0
0
0
0
0
0
0
0
0
0
0
0
0
0
0
0
0
0
0
0
0
0
0
0
0
0
0
0
0
0
0
0
0
0
0
0
0
0
0
0
0
0
0
0
0
0
0
0
0
0
0
0
0
0
0
0
0
0
0
0
0
0
0
0
0
0
0
0
0
1
1
1
4
4
4
12
12
12
28
28
28
55
55
55
95
95
95
141
141
141
184
184
184
217
217
217
238
238
238
249
249
249
253
253
253
255
255
255
255
255
255
255
255
255
255
255
255
255
255
255
255
255
255
254
254
254
253
253
253
247
247
247
235
235
235
211
211
211
175
175
175
130
130
130
85
85
85
47
47
47
22
22
22
9
9
9
3
3
3
1
1
1
0
0
0
0
0
0
0
0
0
0
0
0
0
0
0
0
0
0
0
0
0
0
0
0
0
0
0
0
0
0
0
0
0
0
0
0
0
0
0
0
0
0
0
0
0
0
0
0
0
0
0
0
0
0
0
0
0
0
0
0
0
0
0
0
0
0
0
0
0
0
0
0
0
0
0
0
0
0
0
0
0
0
0
0
0
0
0
1
1
1
3
3
3
9
9
9
22
22
22
47
47
47
85
85
85
130
130
130
175
175
175
211
211
211
235
235
235
247
247
247
253
253
253
254
254
254
255
255
255
255
255
255
255
255
255
255
255
255
255
255
255
254
254
254
252
252
252
246
246
246
232
232
232
206
206
206
168
168
168
121
121
121
76
76
76
41
41
41
18
18
18
7
7
7
2
2
2
1
1
1
0
0
0
0
0
0
0
0
0
0
0
0
0
0
0
0
0
0
0
0
0
0
0
0
0
0
0
0
0
0
0
0
0
0
0
0
0
0
0
0
0
0
0
0
0
0
0
0
0
0
0
0
0
0
0
0
0
0
0
0
0
0
0
0
0
0
0
0
0
0
0
0
0
0
0
0
0
0
0
0
0
0
0
0
0
0
0
1
1
1
2
2
2
7
7
7
18
18
18
41
41
41
76
76
76
121
121
121
168
168
168
206
206
206
232
232
232
246
246
246
252
252
252
254
254
254
255
255
255
255
255
255
255
255
255
255
255
255
255
255
255
254
254
254
252
252
252
245
245
245
230
230
230
202
202
202
162
162
162
115
115
115
71
71
71
37
37
37
16
16
16
6
6
6
2
2
2
0
0
0
0
0
0
0
0
0
0
0
0
0
0
0
0
0
0
0
0
0
0
0
0
0
0
0
0
0
0
0
0
0
0
0
0
0
0
0
0
0
0
0
0
0
0
0
0
0
0
0
0
0
0
0
0
0
0
0
0
0
0
0
0
0
0
0
0
0
0
0
0
0
0
0
0
0
0
0
0
0
0
0
0
0
0
0
0
0
0
0
0
0
2
2
2
6
6
6
16
16
16
37
37
37
71
71
71
115
115
115
162
162
162
202
202
202
230
230
230
245
245
245
252
252
252
254
254
254
255
255
255
255
255
255
255
255
255
255
255
255
255
255
255
254
254
254
252
252
252
245
245
245
229
229
229
200
200
200
158
158
158
111
111
111
67
67
67
34
34
34
14
14
14
5
5
5
1
1
1
0
0
0
0
0
0
0
0
0
0
0
0
0
0
0
0
0
0
0
0
0
0
0
0
0
0
0
0
0
0
0
0
0
0
0
0
0
0
0
0
0
0
0
0
0
0
0
0
0
0
0
0
0
0
0
0
0
0
0
0
0
0
0
0
0
0
0
0
0
0
0
0
0
0
0
0
0
0
0
0
0
0
0
0
0
0
0
0
0
0
0
0
0
1
1
1
5
5
5
14
14
14
34
34
34
67
67
67
111
111
111
158
158
158
200
200
200
229
229
229
245
245
245
252
252
252
254
254
254
255
255
255
255
255
255
255
255
255
255
255
255
255
255
255
254
254
254
252
252
252
244
244
244
228
228
228
198
198
198
157
157
157
109
109
109
65
65
65
33
33
33
14
14
14
5
5
5
1
1
1
0
0
0
0
0
0
0
0
0
0
0
0
0
0
0
0
0
0
0
0
0
0
0
0
0
0
0
0
0
0
0
0
0
0
0
0
0
0
0
0
0
0
0
0
0
0
0
0
0
0
0
0
0
0
0
0
0
0
0
0
0
0
0
0
0
0
0
0
0
0
0
0
0
0
0
0
0
0
0
0
0
0
0
0
0
0
0
0
0
0
0
0
0
1
1
1
5
5
5
14
14
14
33
33
33
65
65
65
109
109
109
157
157
157
198
198
198
228
228
228
244
244
244
252
252
252
254
254
254
255
255
255
255
255
255
255
255
255
255
255
255
255
255
255
254
254
254
252
252
252
244
244
244
228
228
228
198
198
198
157
157
157
109
109
109
65
65
65
33
33
33
14
14
14
5
5
5
1
1
1
0
0
0
0
0
0
0
0
0
0
0
0
0
0
0
0
0
0
0
0
0
0
0
0
0
0
0
0
0
0
0
0
0
0
0
0
0
0
0
0
0
0
0
0
0
0
0
0
0
0
0
0
0
0
0
0
0
0
0
0
0
0
0
0
0
0
0
0
0
0
0
0
0
0
0
0
0
0
0
0
0
0
0
0
0
0
0
0
0
0
0
0
0
1
1
1
5
5
5
14
14
14
33
33
33
65
65
65
109
109
109
157
157
157
198
198
198
228
228
228
244
244
244
252
252
252
254
254
254
255
255
255
255
255
255
255
255
255
255
255
255
255
255
255
254
254
254
252
252
252
245
245
245
229
229
229
200
200
200
158
158
158
111
111
111
67
67
67
34
34
34
14
14
14
5
5
5
1
1
1
0
0
0
0
0
0
0
0
0
0
0
0
0
0
0
0
0
0
0
0
0
0
0
0
0
0
0
0
0
0
0
0
0
0
0
0
0
0
0
0
0
0
0
0
0
0
0
0
0
0
0
0
0
0
0
0
0
0
0
0
0
0
0
0
0
0
0
0
0
0
0
0
0
0
0
0
0
0
0
0
0
0
0
0
0
0
0
0
0
0
0
0
0
1
1
1
5
5
5
14
14
14
34
34
34
67
67
67
111
111
111
158
158
158
200
200
200
229
229
229
245
245
245
252
252
252
254
254
254
255
255
255
255
255
255
255
255
255
255
255
255
255
255
255
254
254
254
252
252
252
245
245
245
230
230
230
202
202
202
162
162
162
115
115
115
71
71
71
37
37
37
16
16
16
6
6
6
2
2
2
0
0
0
0
0
0
0
0
0
0
0
0
0
0
0
0
0
0
0
0
0
0
0
0
0
0
0
0
0
0
0
0
0
0
0
0
0
0
0
0
0
0
0
0
0
0
0
0
0
0
0
0
0
0
0
0
0
0
0
0
0
0
0
0
0
0
0
0
0
0
0
0
0
0
0
0
0
0
0
0
0
0
0
0
0
0
0
0
0
0
0
0
0
2
2
2
6
6
6
16
16
16
37
37
37
71
71
71
115
115
115
162
162
162
202
202
202
230
230
230
245
245
245
252
252
252
254
254
254
255
255
255
255
255
255
255
255
255
255
255
255
255
255
255
254
254
254
252
252
252
246
246
246
232
232
232
206
206
206
168
168
168
121
121
121
76
76
76
41
41
41
18
18
18
7
7
7
2
2
2
1
1
1
0
0
0
0
0
0
0
0
0
0
0
0
0
0
0
0
0
0
0
0
0
0
0
0
0
0
0
0
0
0
0
0
0
0
0
0
0
0
0
0
0
0
0
0
0
0
0
0
0
0
0
0
0
0
0
0
0
0
0
0
0
0
0
0
0
0
0
0
0
0
0
0
0
0
0
0
0
0
0
0
0
0
0
0
0
0
0
1
1
1
2
2
2
7
7
7
18
18
18
41
41
41
76
76
76
121
121
121
168
168
168
206
206
206
232
232
232
246
246
246
252
252
252
254
254
254
255
255
255
255
255
255
255
255
255
255
255
255
255
255
255
254
254
254
253
253
253
247
247
247
235
235
235
211
211
211
175
175
175
130
130
130
85
85
85
47
47
47
22
22
22
9
9
9
3
3
3
1
1
1
0
0
0
0
0
0
0
0
0
0
0
0
0
0
0
0
0
0
0
0
0
0
0
0
0
0
0
0
0
0
0
0
0
0
0
0
0
0
0
0
0
0
0
0
0
0
0
0
0
0
0
0
0
0
0
0
0
0
0
0
0
0
0
0
0
0
0
0
0
0
0
0
0
0
0
0
0
0
0
0
0
0
0
0
0
0
0
1
1
1
3
3
3
9
9
9
22
22
22
47
47
47
85
85
85
130
130
130
175
175
175
211
211
211
235
235
235
247
247
247
253
253
253
254
254
254
255
255
255
255
255
255
255
255
255
255
255
255
255
255
255
255
255
255
253
253
253
249
249
249
238
238
238
217
217
217
184
184
184
141
141
141
95
95
95
55
55
55
28
28
28
12
12
12
4
4
4
1
1
1
0
0
0
0
0
0
0
0
0
0
0
0
0
0
0
0
0
0
0
0
0
0
0
0
0
0
0
0
0
0
0
0
0
0
0
0
0
0
0
0
0
0
0
0
0
0
0
0
0
0
0
0
0
0
0
0
0
0
0
0
0
0
0
0
0
0
0
0
0
0
0
0
0
0
0
0
0
0
0
0
0
0
0
0
0
0
0
1
1
1
4
4
4
12
12
12
28
28
28
55
55
55
95
95
95
141
141
141
184
184
184
217
217
217
238
238
238
249
249
249
253
253
253
255
255
255
255
255
255
255
255
255
255
255
255
255
255
255
255
255
255
255
255
255
254
254
254
250
250
250
242
242
242
224
224
224
194
194
194
153
153
153
108
108
108
66
66
66
35
35
35
16
16
16
6
6
6
2
2
2
0
0
0
0
0
0
0
0
0
0
0
0
0
0
0
0
0
0
0
0
0
0
0
0
0
0
0
0
0
0
0
0
0
0
0
0
0
0
0
0
0
0
0
0
0
0
0
0
0
0
0
0
0
0
0
0
0
0
0
0
0
0
0
0
0
0
0
0
0
0
0
0
0
0
0
0
0
0
0
0
0
0
0
0
0
0
0
2
2
2
6
6
6
16
16
16
35
35
35
66
66
66
108
108
108
153
153
153
194
194
194
224
224
224
242
242
242
250
250
250
254
254
254
255
255
255
255
255
255
255
255
255
255
255
255
255
255
255
255
255
255
255
255
255
254
254
254
251
251
251
245
245
245
230
230
230
204
204
204
167
167
167
123
123
123
80
80
80
45
45
45
22
22
22
9
9
9
3
3
3
1
1
1
0
0
0
0
0
0
0
0
0
0
0
0
0
0
0
0
0
0
0
0
0
0
0
0
0
0
0
0
0
0
0
0
0
0
0
0
0
0
0
0
0
0
0
0
0
0
0
0
0
0
0
0
0
0
0
0
0
0
0
0
0
0
0
0
0
0
0
0
0
0
0
0
0
0
0
0
0
0
0
0
0
1
1
1
3
3
3
9
9
9
22
22
22
45
45
45
80
80
80
123
123
123
167
167
167
204
204
204
230
230
230
245
245
245
251
251
251
254
254
254
255
255
255
255
255
255
255
255
255
255
255
255
255
255
255
255
255
255
255
255
255
254
254
254
253
253
253
248
248
248
236
236
236
215
215
215
182
182
182
140
140
140
96
96
96
58
58
58
31
31
31
14
14
14
5
5
5
2
2
2
0
0
0
0
0
0
0
0
0
0
0
0
0
0
0
0
0
0
0
0
0
0
0
0
0
0
0
0
0
0
0
0
0
0
0
0
0
0
0
0
0
0
0
0
0
0
0
0
0
0
0
0
0
0
0
0
0
0
0
0
0
0
0
0
0
0
0
0
0
0
0
0
0
0
0
0
0
0
0
0
0
2
2
2
5
5
5
14
14
14
31
31
31
58
58
58
96
96
96
140
140
140
182
182
182
215
215
215
236
236
236
248
248
248
253
253
253
254
254
254
255
255
255
255
255
255
255
255
255
255
255
255
255
255
255
255
255
255
255
255
255
255
255
255
253
253
253
250
250
250
241
241
241
224
224
224
197
197
197
159
159
159
116
116
116
75
75
75
43
43
43
22
22
22
9
9
9
4
4
4
1
1
1
0
0
0
0
0
0
0
0
0
0
0
0
0
0
0
0
0
0
0
0
0
0
0
0
0
0
0
0
0
0
0
0
0
0
0
0
0
0
0
0
0
0
0
0
0
0
0
0
0
0
0
0
0
0
0
0
0
0
0
0
0
0
0
0
0
0
0
0
0
0
0
0
0
0
0
1
1
1
4
4
4
9
9
9
22
22
22
43
43
43
75
75
75
116
116
116
159
159
159
197
197
197
224
224
224
241
241
241
250
250
250
253
253
253
255
255
255
255
255
255
255
255
255
255
255
255
255
255
255
255
255
255
255
255
255
255
255
255
255
255
255
254
254
254
252
252
252
246
246
246
233
233
233
211
211
211
178
178
178
137
137
137
96
96
96
59
59
59
33
33
33
16
16
16
7
7
7
3
3
3
1
1
1
0
0
0
0
0
0
0
0
0
0
0
0
0
0
0
0
0
0
0
0
0
0
0
0
0
0
0
0
0
0
0
0
0
0
0
0
0
0
0
0
0
0
0
0
0
0
0
0
0
0
0
0
0
0
0
0
0
0
0
0
0
0
0
0
0
0
0
0
0
1
1
1
3
3
3
7
7
7
16
16
16
33
33
33
59
59
59
96
96
96
137
137
137
178
178
178
211
211
211
233
233
233
246
246
246
252
252
252
254
254
254
255
255
255
255
255
255
255
255
255
255
255
255
255
255
255
255
255
255
255
255
255
255
255
255
255
255
255
255
255
255
253
253
253
249
249
249
240
240
240
223
223
223
196
196
196
160
160
160
119
119
119
80
80
80
49
49
49
26
26
26
13
13
13
6
6
6
2
2
2
1
1
1
0
0
0
0
0
0
0
0
0
0
0
0
0
0
0
0
0
0
0
0
0
0
0
0
0
0
0
0
0
0
0
0
0
0
0
0
0
0
0
0
0
0
0
0
0
0
0
0
0
0
0
0
0
0
0
0
0
0
0
0
0
0
0
1
1
1
2
2
2
6
6
6
13
13
13
26
26
26
49
49
49
80
80
80
119
119
119
160
160
160
196
196
196
223
223
223
240
240
240
249
249
249
253
253
253
255
255
255
255
255
255
255
255
255
255
255
255
255
255
255
255
255
255
255
255
255
255
255
255
255
255
255
255
255
255
255
255
255
254
254
254
252
252
252
246
246
246
233
233
233
213
213
213
182
182
182
145
145
145
106
106
106
70
70
70
42
42
42
23
23
23
12
12
12
5
5
5
2
2
2
1
1
1
0
0
0
0
0
0
0
0
0
0
0
0
0
0
0
0
0
0
0
0
0
0
0
0
0
0
0
0
0
0
0
0
0
0
0
0
0
0
0
0
0
0
0
0
0
0
0
0
0
0
0
0
0
0
0
0
0
1
1
1
2
2
2
5
5
5
12
12
12
23
23
23
42
42
42
70
70
70
106
106
106
145
145
145
182
182
182
213
213
213
233
233
233
246
246
246
252
252
252
254
254
254
255
255
255
255
255
255
255
255
255
255
255
255
255
255
255
255
255
255
255
255
255
255
255
255
255
255
255
255
255
255
255
255
255
254
254
254
253
253
253
249
249
249
241
241
241
226
226
226
203
203
203
171
171
171
134
134
134
97
97
97
64
64
64
39
39
39
22
22
22
12
12
12
6
6
6
3
3
3
1
1
1
0
0
0
0
0
0
0
0
0
0
0
0
0
0
0
0
0
0
0
0
0
0
0
0
0
0
0
0
0
0
0
0
0
0
0
0
0
0
0
0
0
0
0
0
0
0
0
0
0
0
0
1
1
1
3
3
3
6
6
6
12
12
12
22
22
22
39
39
39
64
64
64
97
97
97
134
134
134
171
171
171
203
203
203
226
226
226
241
241
241
249
249
249
253
253
253
254
254
254
255
255
255
255
255
255
255
255
255
255
255
255
255
255
255
255
255
255
255
255
255
255
255
255
255
255
255
255
255
255
255
255
255
255
255
255
254
254
254
252
252
252
247
247
247
237
237
237
220
220
220
195
195
195
163
163
163
127
127
127
92
92
92
62
62
62
39
39
39
23
23
23
12
12
12
7
7
7
3
3
3
2
2
2
1
1
1
0
0
0
0
0
0
0
0
0
0
0
0
0
0
0
0
0
0
0
0
0
0
0
0
0
0
0
0
0
0
0
0
0
0
0
0
0
0
0
1
1
1
2
2
2
3
3
3
7
7
7
12
12
12
23
23
23
39
39
39
62
62
62
92
92
92
127
127
127
163
163
163
195
195
195
220
220
220
237
237
237
247
247
247
252
252
252
254
254
254
255
255
255
255
255
255
255
255
255
255
255
255
255
255
255
255
255
255
255
255
255
255
255
255
255
255
255
255
255
255
255
255
255
255
255
255
255
255
255
255
255
255
254
254
254
251
251
251
245
245
245
234
234
234
216
216
216
190
190
190
159
159
159
125
125
125
92
92
92
64
64
64
41
41
41
26
26
26
15
15
15
9
9
9
5
5
5
3
3
3
2
2
2
1
1
1
1
1
1
0
0
0
0
0
0
0
0
0
0
0
0
0
0
0
0
0
0
0
0
0
1
1
1
1
1
1
2
2
2
3
3
3
5
5
5
9
9
9
15
15
15
26
26
26
41
41
41
64
64
64
92
92
92
125
125
125
159
159
159
190
190
190
216
216
216
234
234
234
245
245
245
251
251
251
254
254
254
255
255
255
255
255
255
255
255
255
255
255
255
255
255
255
255
255
255
255
255
255
255
255
255
255
255
255
255
255
255
255
255
255
255
255
255
255
255
255
255
255
255
255
255
255
254
254
254
253
253
253
250
250
250
244
244
244
232
232
232
214
214
214
189
189
189
159
159
159
127
127
127
96
96
96
69
69
69
47
47
47
32
32
32
21
21
21
13
13
13
9
9
9
6
6
6
4
4
4
3
3
3
2
2
2
2
2
2
1
1
1
1
1
1
1
1
1
2
2
2
2
2
2
3
3
3
4
4
4
6
6
6
9
9
9
13
13
13
21
21
21
32
32
32
47
47
47
69
69
69
96
96
96
127
127
127
159
159
159
189
189
189
214
214
214
232
232
232
244
244
244
250
250
250
253
253
253
254
254
254
255
255
255
255
255
255
255
255
255
255
255
255
255
255
255
255
255
255
255
255
255
255
255
255
255
255
255
255
255
255
255
255
255
255
255
255
255
255
255
255
255
255
255
255
255
255
255
255
254
254
254
253
253
253
249
249
249
242
242
242
231
231
231
213
213
213
190
190
190
162
162
162
132
132
132
104
104
104
78
78
78
57
57
57
41
41
41
29
29
29
21
21
21
15
15
15
11
11
11
9
9
9
7
7
7
6
6
6
5
5
5
5
5
5
5
5
5
6
6
6
7
7
7
9
9
9
11
11
11
15
15
15
21
21
21
29
29
29
41
41
41
57
57
57
78
78
78
104
104
104
132
132
132
162
162
162
190
190
190
213
213
213
231
231
231
242
242
242
249
249
249
253
253
253
254
254
254
255
255
255
255
255
255
255
255
255
255
255
255
255
255
255
255
255
255
255
255
255
255
255
255
255
255
255
255
255
255
255
255
255
255
255
255
255
255
255
255
255
255
255
255
255
255
255
255
255
255
255
255
255
255
254
254
254
253
253
253
249
249
249
242
242
242
231
231
231
215
215
215
194
194
194
169
169
169
143
143
143
117
117
117
93
93
93
73
73
73
56
56
56
43
43
43
33
33
33
26
26
26
21
21
21
18
18
18
15
15
15
14
14
14
14
14
14
14
14
14
15
15
15
18
18
18
21
21
21
26
26
26
33
33
33
43
43
43
56
56
56
73
73
73
93
93
93
117
117
117
143
143
143
169
169
169
194
194
194
215
215
215
231
231
231
242
242
242
249
249
249
253
253
253
254
254
254
255
255
255
255
255
255
255
255
255
255
255
255
255
255
255
255
255
255
255
255
255
255
255
255
255
255
255
255
255
255
255
255
255
255
255
255
255
255
255
255
255
255
255
255
255
255
255
255
255
255
255
255
255
255
255
255
255
255
255
255
254
254
254
252
252
252
249
249
249
243
243
243
233
233
233
219
219
219
201
201
201
180
180
180
157
157
157
134
134
134
112
112
112
93
93
93
77
77
77
63
63
63
53
53
53
45
45
45
39
39
39
35
35
35
33
33
33
32
32
32
33
33
33
35
35
35
39
39
39
45
45
45
53
53
53
63
63
63
77
77
77
93
93
93
112
112
112
134
134
134
157
157
157
180
180
180
201
201
201
219
219
219
233
233
233
243
243
243
249
249
249
252
252
252
254
254
254
255
255
255
255
255
255
255
255
255
255
255
255
255
255
255
255
255
255
255
255
255
255
255
255
255
255
255
255
255
255
255
255
255
255
255
255
255
255
255
255
255
255
255
255
255
255
255
255
255
255
255
255
255
255
255
255
255
255
255
255
255
255
255
255
255
255
254
254
254
253
253
253
250
250
250
245
245
245
237
237
237
225
225
225
211
211
211
194
194
194
175
175
175
155
155
155
136
136
136
119
119
119
104
104
104
92
92
92
82
82
82
74
74
74
69
69
69
66
66
66
65
65
65
66
66
66
69
69
69
74
74
74
82
82
82
92
92
92
104
104
104
119
119
119
136
136
136
155
155
155
175
175
175
194
194
194
211
211
211
225
225
225
237
237
237
245
245
245
250
250
250
253
253
253
254
254
254
255
255
255
255
255
255
255
255
255
255
255
255
255
255
255
255
255
255
255
255
255
255
255
255
255
255
255
255
255
255
255
255
255
255
255
255
255
255
255
255
255
255
255
255
255
255
255
255
255
255
255
255
255
255
255
255
255
255
255
255
255
255
255
255
255
255
255
255
255
255
255
255
254
254
254
253
253
253
251
251
251
247
247
247
241
241
241
232
232
232
221
221
221
208
208
208
194
194
194
179
179
179
164
164
164
150
150
150
137
137
137
127
127
127
119
119
119
113
113
113
110
110
110
109
109
109
110
110
110
113
113
113
119
119
119
127
127
127
137
137
137
150
150
150
164
164
164
179
179
179
194
194
194
208
208
208
221
221
221
232
232
232
241
241
241
247
247
247
251
251
251
253
253
253
254
254
254
255
255
255
255
255
255
255
255
255
255
255
255
255
255
255
255
255
255
255
255
255
255
255
255
255
255
255
255
255
255
255
255
255
255
255
255
255
255
255
255
255
255
255
255
255
255
255
255
255
255
255
255
255
255
255
255
255
255
255
255
255
255
255
255
255
255
255
255
255
255
255
255
255
255
255
255
255
255
254
254
254
254
254
254
252
252
252
249
249
249
245
245
245
239
239
239
232
232
232
223
223
223
213
213
213
202
202
202
191
191
191
181
181
181
173
173
173
166
166
166
161
161
161
157
157
157
156
156
156
157
157
157
161
161
161
166
166
166
173
173
173
181
181
181
191
191
191
202
202
202
213
213
213
223
223
223
232
232
232
239
239
239
245
245
245
249
249
249
252
252
252
254
254
254
254
254
254
255
255
255
255
255
255
255
255
255
255
255
255
255
255
255
255
255
255
255
255
255
255
255
255
255
255
255
255
255
255
255
255
255
255
255
255
255
255
255
255
255
255
255
255
255
255
255
255
255
255
255
255
255
255
255
255
255
255
255
255
255
255
255
255
255
255
255
255
255
255
255
255
255
255
255
255
255
255
255
255
255
255
255
255
255
255
255
254
254
254
253
253
253
251
251
251
249
249
249
245
245
245
241
241
241
235
235
235
229
229
229
222
222
222
216
216
216
210
210
210
205
205
205
201
201
201
199
199
199
198
198
198
199
199
199
201
201
201
205
205
205
210
210
210
216
216
216
222
222
222
229
229
229
235
235
235
241
241
241
245
245
245
249
249
249
251
251
251
253
253
253
254
254
254
255
255
255
255
255
255
255
255
255
255
255
255
255
255
255
255
255
255
255
255
255
255
255
255
255
255
255
255
255
255
255
255
255
255
255
255
255
255
255
255
255
255
255
255
255
255
255
255
255
255
255
255
255
255
255
255
255
255
255
255
255
255
255
255
255
255
255
255
255
255
255
255
255
255
255
255
255
255
255
255
255
255
255
255
255
255
255
255
255
255
255
255
255
255
255
255
255
255
255
254
254
254
253
253
253
252
252
252
249
249
249
247
247
247
244
244
244
241
241
241
237
237
237
234
234
234
231
231
231
229
229
229
228
228
228
228
228
228
228
228
228
229
229
229
231
231
231
234
234
234
237
237
237
241
241
241
244
244
244
247
247
247
249
249
249
252
252
252
253
253
253
254
254
254
255
255
255
255
255
255
255
255
255
255
255
255
255
255
255
255
255
255
255
255
255
255
255
255
255
255
255
255
255
255
255
255
255
255
255
255
255
255
255
255
255
255
255
255
255
255
255
255
255
255
255
255
255
255
255
255
255
255
255
255
255
255
255
255
255
255
255
255
255
255
255
255
255
255
255
255
255
255
255
255
255
255
255
255
255
255
255
255
255
255
255
255
255
255
255
255
255
255
255
255
255
255
255
255
255
255
255
255
254
254
254
254
254
254
253
253
253
252
252
252
251
251
251
250
250
250
248
248
248
247
247
247
246
246
246
245
245
245
244
244
244
244
244
244
244
244
244
245
245
245
246
246
246
247
247
247
248
248
248
250
250
250
251
251
251
252
252
252
253
253
253
254
254
254
254
254
254
255
255
255
255
255
255
255
255
255
255
255
255
255
255
255
255
255
255
255
255
255
255
255
255
255
255
255
255
255
255
255
255
255
255
255
255
255
255
255
255
255
255
255
255
255
255
255
255
255
255
255
255
255
255
255
255
255
255
255
255
255
255
255
255
255
255
255
255
255
255
255
255
255
255
255
255
255
255
255
255
255
255
255
255
255
255
255
255
255
255
255
255
255
255
255
255
255
255
255
255
255
255
255
255
255
255
255
255
255
255
255
255
255
255
255
255
255
255
255
255
254
254
254
254
254
254
253
253
253
253
253
253
252
252
252
252
252
252
252
252
252
251
251
251
251
251
251
251
251
251
252
252
252
252
252
252
252
252
252
253
253
253
253
253
253
254
254
254
254
254
254
255
255
255
255
255
255
255
255
255
255
255
255
255
255
255
255
255
255
255
255
255
255
255
255
255
255
255
255
255
255
255
255
255
255
255
255
255
255
255
255
255
255
255
255
255
255
255
255
255
255
255
255
255
255
255
255
255
255
255
255
255
255
255
